HIERARCHY
ROOT Hips
{
	OFFSET -0.001795 -0.223333 0.028219
	CHANNELS 6 Xposition Yposition Zposition Zrotation Yrotation Xrotation
	JOINT LeftUpLeg
	{
		OFFSET 0.069520 -0.091406 -0.006815
		CHANNELS 3 Zrotation Yrotation Xrotation
		JOINT LeftLeg
		{
			OFFSET 0.034277 -0.375199 -0.004496
			CHANNELS 3 Zrotation Yrotation Xrotation
			JOINT LeftFoot
			{
				OFFSET -0.013596 -0.397961 -0.043693
				CHANNELS 3 Zrotation Yrotation Xrotation
				JOINT LeftToe
				{
					OFFSET 0.026358 -0.055791 0.119288
					CHANNELS 3 Zrotation Yrotation Xrotation
					End Site
					{
						OFFSET 0.000000 0.000000 0.000000
					}
				}
			}
		}
	}
	JOINT RightUpLeg
	{
		OFFSET -0.067670 -0.090522 -0.004320
		CHANNELS 3 Zrotation Yrotation Xrotation
		JOINT RightLeg
		{
			OFFSET -0.038290 -0.382569 -0.008850
			CHANNELS 3 Zrotation Yrotation Xrotation
			JOINT RightFoot
			{
				OFFSET 0.015774 -0.398415 -0.042312
				CHANNELS 3 Zrotation Yrotation Xrotation
				JOINT RightToe
				{
					OFFSET -0.025372 -0.048144 0.123348
					CHANNELS 3 Zrotation Yrotation Xrotation
					End Site
					{
						OFFSET 0.000000 0.000000 0.000000
					}
				}
			}
		}
	}
	JOINT Spine
	{
		OFFSET -0.002533 0.108963 -0.026696
		CHANNELS 3 Zrotation Yrotation Xrotation
		JOINT Spine1
		{
			OFFSET 0.005487 0.135180 0.001092
			CHANNELS 3 Zrotation Yrotation Xrotation
			JOINT Spine2
			{
				OFFSET 0.001457 0.052922 0.025425
				CHANNELS 3 Zrotation Yrotation Xrotation
				JOINT Neck
				{
					OFFSET -0.002778 0.213870 -0.042857
					CHANNELS 3 Zrotation Yrotation Xrotation
					JOINT Head
					{
						OFFSET 0.005152 0.064970 0.051349
						CHANNELS 3 Zrotation Yrotation Xrotation
						End Site
						{
							OFFSET 0.000000 0.000000 0.000000
						}
					}
				}
				JOINT LeftShoulder
				{
					OFFSET 0.078845 0.121749 -0.034090
					CHANNELS 3 Zrotation Yrotation Xrotation
					JOINT LeftArm
					{
						OFFSET 0.090977 0.030469 -0.008868
						CHANNELS 3 Zrotation Yrotation Xrotation
						JOINT LeftForeArm
						{
							OFFSET 0.259612 -0.012772 -0.027456
							CHANNELS 3 Zrotation Yrotation Xrotation
							JOINT LeftHand
							{
								OFFSET 0.249234 0.008986 -0.001171
								CHANNELS 3 Zrotation Yrotation Xrotation
								End Site
								{
									OFFSET 0.000000 0.000000 0.000000
								}
							}
						}
					}
				}
				JOINT RightShoulder
				{
					OFFSET -0.081759 0.118833 -0.038615
					CHANNELS 3 Zrotation Yrotation Xrotation
					JOINT RightArm
					{
						OFFSET -0.096012 0.032551 -0.009143
						CHANNELS 3 Zrotation Yrotation Xrotation
						JOINT RightForeArm
						{
							OFFSET -0.253742 -0.013329 -0.021401
							CHANNELS 3 Zrotation Yrotation Xrotation
							JOINT RightHand
							{
								OFFSET -0.255298 0.007772 -0.005559
								CHANNELS 3 Zrotation Yrotation Xrotation
								End Site
								{
									OFFSET 0.000000 0.000000 0.000000
								}
							}
						}
					}
				}
			}
		}
	}
}
MOTION
Frames: 11
Frame Time: 0.050000
0.000000 0.912409 0.000000 -5.773762 13.351164 -2.170820 13.952335 -0.861260 1.936457 -6.764301 0.584258 8.511257 9.791350 18.433029 -0.914782 0.000000 0.000000 0.000000 -9.904678 -0.136764 -9.083087 4.525905 -0.668794 2.759049 -21.005604 -36.210753 24.424981 0.000000 0.000000 0.000000 -4.119453 -0.298198 13.250178 8.502570 -1.232543 -24.399397 2.260631 -5.132377 25.727846 6.349377 -3.348356 -15.880380 0.000000 0.000000 0.000000 -15.711264 -2.057045 -0.462321 -45.414793 -34.267397 5.223934 161.059935 -54.395401 -134.716779 0.000000 0.000000 0.000000 6.145201 5.742126 2.453372 33.925787 29.705886 2.324206 -98.453555 24.019882 -19.178060 0.000000 0.000000 0.000000
-0.000048 0.912244 -0.000651 -6.440615 13.874707 -1.734883 15.155834 -0.952570 0.838754 -7.535709 0.679636 8.943273 9.667375 18.159033 -1.147855 0.000000 0.000000 0.000000 -9.423216 -0.085180 -9.140998 4.823122 -0.711281 1.839800 -21.515222 -36.624928 25.096858 0.000000 0.000000 0.000000 -4.658559 -0.195269 11.715267 9.421480 -1.499389 -24.186135 3.267279 -5.291622 25.597929 9.074066 -6.004570 -12.712151 0.000000 0.000000 0.000000 -16.720357 -1.603626 -0.839624 -48.288532 -35.379932 6.296726 164.742493 -56.971805 -142.944798 0.000000 0.000000 0.000000 6.974663 6.618695 2.868424 35.009392 28.958206 2.354200 -98.973857 26.679384 -22.472943 0.000000 0.000000 0.000000
0.000626 0.911235 -0.001148 -5.629511 11.704144 -2.026904 14.322044 -0.788960 1.521453 -8.191294 0.850616 9.716322 10.421025 19.830691 -0.691088 0.000000 0.000000 0.000000 -10.816864 -0.178570 -9.288308 5.768338 -0.832657 1.814774 -20.037242 -35.187458 23.848579 0.000000 0.000000 0.000000 -5.720044 -0.077138 12.098183 11.549906 -2.148208 -23.777781 2.004271 -1.794630 25.579225 10.486602 -6.867868 -12.381111 0.000000 0.000000 0.000000 -17.676077 -2.063286 -1.174392 -45.834600 -35.361546 5.857238 164.395303 -56.394254 -143.510586 0.000000 0.000000 0.000000 9.943741 6.813341 3.413846 33.279213 28.500690 1.883455 -100.067182 25.903142 -21.237187 0.000000 0.000000 0.000000
0.001221 0.908695 -0.001652 -6.130415 12.576421 -2.639943 14.773943 -0.829251 0.986653 -7.875994 0.780545 11.265511 10.327804 19.365958 -1.987359 0.000000 0.000000 0.000000 -11.374206 -0.284882 -8.717935 6.441209 -0.949275 1.432189 -20.498163 -35.202580 25.451229 0.000000 0.000000 0.000000 -5.815164 -0.091853 11.921650 11.602244 -2.299647 -22.620069 2.759295 -3.530656 25.223298 10.150286 -7.029140 -11.346872 0.000000 0.000000 0.000000 -17.476024 -1.331344 -1.254472 -46.584083 -35.757017 6.192725 164.617322 -58.114638 -144.360853 0.000000 0.000000 0.000000 8.913086 7.677441 3.542092 33.977577 28.975938 2.202044 -98.209274 24.325333 -19.428035 0.000000 0.000000 0.000000
0.001669 0.905529 -0.001880 -5.745775 12.562719 -3.252375 14.359697 -0.745158 0.386056 -7.904057 0.782527 13.762556 10.510305 19.601300 -2.786923 0.000000 0.000000 0.000000 -11.990628 -0.372617 -8.613519 5.862429 -0.859165 1.588456 -20.719768 -34.980537 26.921566 0.000000 0.000000 0.000000 -6.444038 -0.056195 12.561219 12.237469 -2.419227 -23.240270 2.793677 -2.942006 25.723507 9.849613 -6.760200 -11.374153 0.000000 0.000000 0.000000 -18.175670 -1.891362 -1.142827 -45.201002 -35.956422 5.942289 164.221030 -58.334535 -144.233007 0.000000 0.000000 0.000000 9.850118 7.474273 3.601619 32.709174 28.569681 1.838311 -98.342545 26.056161 -21.370413 0.000000 0.000000 0.000000
0.001805 0.902024 -0.002069 -5.968861 12.835430 -3.468730 14.425064 -0.695358 -0.970427 -7.565720 0.674255 16.454322 10.707104 19.832969 -3.742677 0.000000 0.000000 0.000000 -12.058344 -0.402206 -8.824340 5.102530 -0.735008 1.271979 -21.166076 -34.728679 29.281495 0.000000 0.000000 0.000000 -6.712927 -0.039763 12.374601 12.475435 -2.594585 -22.398306 3.297980 -3.385889 25.153374 9.921176 -6.675187 -12.038824 0.000000 0.000000 0.000000 -18.082167 -1.395517 -1.331775 -45.272833 -37.922796 6.805756 161.039728 -58.895286 -139.244944 0.000000 0.000000 0.000000 9.901053 8.187185 3.866433 32.445300 28.951902 1.963935 -96.608002 25.443484 -20.360529 0.000000 0.000000 0.000000
0.001256 0.899279 -0.002191 -5.941757 13.094849 -3.805040 14.361895 -0.676066 -1.397400 -7.386405 0.594017 17.806711 10.791770 19.845386 -4.517103 0.000000 0.000000 0.000000 -12.319149 -0.462826 -9.014908 5.119890 -0.753345 1.898497 -21.537807 -34.985861 29.809655 0.000000 0.000000 0.000000 -6.725306 -0.059540 13.036173 12.613694 -2.652563 -22.240229 3.430821 -3.110322 24.769519 10.093720 -6.631764 -12.643368 0.000000 0.000000 0.000000 -18.388129 -2.528430 -0.868250 -44.176763 -38.869712 6.962991 157.789544 -57.495978 -133.130627 0.000000 0.000000 0.000000 11.370476 8.260986 4.083972 31.790962 29.919191 2.086995 -97.982045 25.355156 -20.759679 0.000000 0.000000 0.000000
-0.000002 0.897552 -0.002215 -6.105158 13.141936 -3.743300 14.803371 -0.674528 -2.135185 -7.705376 0.640523 18.886688 10.863279 19.979439 -4.795420 0.000000 0.000000 0.000000 -12.332185 -0.478758 -9.521347 5.416691 -0.821694 2.724585 -21.389412 -34.999999 29.152790 0.000000 0.000000 0.000000 -6.608297 -0.079164 13.472550 12.713414 -2.709974 -22.006309 3.571084 -2.802200 24.605999 10.033709 -6.522043 -12.616108 0.000000 0.000000 0.000000 -18.839661 -2.658529 -0.937016 -44.120757 -39.659165 7.301956 157.438307 -55.933508 -131.355028 0.000000 0.000000 0.000000 12.140676 8.332822 4.237472 32.655347 30.893373 2.471346 -99.612670 26.301999 -22.186467 0.000000 0.000000 0.000000
-0.001660 0.896913 -0.002090 -6.059026 13.030012 -3.746026 14.840931 -0.660114 -2.358365 -7.685499 0.632364 19.342810 10.913812 20.120245 -4.736858 0.000000 0.000000 0.000000 -12.341214 -0.487024 -9.935111 5.705707 -0.881219 3.152367 -21.776756 -35.477503 29.167396 0.000000 0.000000 0.000000 -6.548350 -0.090825 13.878063 12.701521 -2.789204 -21.357614 3.623918 -2.311402 24.267320 9.841721 -6.413386 -12.134028 0.000000 0.000000 0.000000 -19.264438 -3.575200 -0.603820 -43.652792 -39.356479 7.128832 157.265609 -54.813141 -130.307943 0.000000 0.000000 0.000000 13.193581 8.923873 4.684395 33.375971 31.605448 2.777492 -101.166938 27.440124 -23.886275 0.000000 0.000000 0.000000
-0.003304 0.895428 -0.001882 -6.211118 13.182273 -4.094467 15.086010 -0.650031 -2.831756 -7.591877 0.563164 20.706772 10.918312 20.114171 -4.845767 0.000000 0.000000 0.000000 -12.761947 -0.583140 -10.559974 6.306899 -1.014348 3.828096 -22.676150 -35.896543 31.077719 0.000000 0.000000 0.000000 -6.878671 -0.088163 14.776742 12.643720 -2.856361 -20.747507 4.314893 -1.511411 23.985606 9.743511 -6.107995 -12.532702 0.000000 0.000000 0.000000 -18.998792 -3.779301 -0.677753 -45.033803 -39.237841 7.463556 158.479009 -55.131698 -133.050871 0.000000 0.000000 0.000000 13.954264 9.064377 4.968721 34.091049 31.963132 3.002855 -102.206313 28.708047 -25.411033 0.000000 0.000000 0.000000
-0.005004 0.892466 -0.001708 -6.231524 13.133808 -3.897255 15.210480 -0.598673 -4.172410 -7.634745 0.516689 22.744843 11.096464 20.528656 -5.045496 0.000000 0.000000 0.000000 -13.351075 -0.696625 -11.486391 6.882609 -1.141236 4.381709 -22.946949 -35.904455 31.946565 0.000000 0.000000 0.000000 -6.912697 -0.095738 15.467120 12.709923 -2.919269 -20.433526 4.338878 -0.886023 23.665825 10.024527 -6.287390 -12.275258 0.000000 0.000000 0.000000 -19.511300 -3.333436 -1.133870 -46.141725 -37.113898 6.936592 163.645115 -56.086096 -143.033045 0.000000 0.000000 0.000000 14.884135 9.870206 5.578622 34.418599 31.620171 2.961146 -102.709360 30.868970 -27.960713 0.000000 0.000000 0.000000
